<?xml version="1.0" encoding="utf-8"?>
<!-- Generator: Adobe Illustrator 15.0.0, SVG Export Plug-In . SVG Version: 6.00 Build 0)  -->
<!DOCTYPE svg PUBLIC "-//W3C//DTD SVG 1.1//EN" "http://www.w3.org/Graphics/SVG/1.1/DTD/svg11.dtd">
<svg version="1.1" id="Layer_4_copy" xmlns="http://www.w3.org/2000/svg" xmlns:xlink="http://www.w3.org/1999/xlink" x="0px"
	 y="0px" width="792px" height="612px" viewBox="0 0 792 612" enable-background="new 0 0 792 612" xml:space="preserve">
<g>
	<path fill-rule="evenodd" clip-rule="evenodd" fill="#88C540" d="M427.366,80.254c-7.314,3.594-9.144-6.264-7.734-11.494
		c1.29-3.634,4.168-3.008,6.479-2.09C430.401,68.373,431.807,78.188,427.366,80.254z"/>
	<path fill-rule="evenodd" clip-rule="evenodd" fill="#88C540" d="M645.758,456.641c-1.77,3.968-14.251,7.161-22.78-5.433
		c-2.361-3.488-6.579-9.721-6.687-14.421c-0.068-2.955,0.106-6.236,1.462-8.15c2.531-3.57,10.131-3.057,14.421-1.045
		c0.859,0.402,11.511,8.235,13.375,10.449C650.374,443.773,648.541,451.687,645.758,456.641z"/>
	<path fill-rule="evenodd" clip-rule="evenodd" fill="#88C540" d="M495.287,542.744c-2.007,0.769-6.521,1.733-8.569,0.837
		c-8.393-3.681-9.608-20.817-3.971-28.632c1.661-2.302,5.141-3.241,9.195-3.972c6.915-1.245,9.439,3.825,9.404,3.763
		C510.504,531.394,498.199,541.628,495.287,542.744z"/>
	<path fill-rule="evenodd" clip-rule="evenodd" fill="#88C540" d="M528.725,137.935c5.4-10.837,18.697-9.649,20.754,0.685
		c1.814,9.117-7.917,17.965-13.062,24.156c-2.85,3.43-7.229,8.857-4.989,13.617c2.5,5.315,8.861,5.164,13.191,2.355
		c3.906-2.535,6.891-6.306,10.02-9.674c2.317-2.494,6.915-9.178,9.196-11.495c10.183-11.266,21.522-23.11,37.591-24.255
		c18.849-1.344,37.501,16.402,25.731,35.123c-8.856,14.09-23.991,17.517-34.914,21.473c-6.241,2.262-13.886,4.15-19.187,8.322
		c-3.996,3.146-11.582,11.756-6.715,16.809c11.442,3.342,22.259-3.212,31.35-8.986c7.739-4.916,20.242-9.645,26.929-0.224
		c7.002,9.865,1.729,18.483-8.964,22.726c-7.91,3.137-30.932,2.611-27.369,12.399c4.615,12.685,34.644,5.724,37.688,4.253
		c5.678-2.743,13.225-5.936,17.483-0.074c7.288,10.031-4.858,18.332-10.09,26.215c-7.015,10.57,15.264,8.705,14.271,18.719
		c-0.724,7.293-1.914,13.865-7.912,18.854c-6.26,5.206-3.14,14.526,12.302,23.151c6.617,3.276,7.343,6.469,6.944,13.021
		c-0.5,8.188-3.936,15.755-11.537,18.401c-22.286,7.762-33.64-15.85-51.852-22.149c-7.604-2.631-17.467,1.462-18.373,10.163
		c-0.848,8.131,3.936,13.012,11.702,18.183c38.675,14.422,28.951,35.756,25.078,42.006c-5.735,9.258-16.029,14.359-25.789,7.322
		c-8.608-6.206-27.675-42.884-38.736-30.59c-18.935,21.043,8.839,43.938,12.027,46.857c7.354,6.731,11.982,20.997,10.631,32.253
		c-1.259,10.485-4.21,20.37-13.542,26.164c-9.476,5.884-21.982,6.596-31.803,1.22c-9.205-5.037-15.578-14.474-19.118-24.196
		c-2.039-5.598-2.69-11.816-3.563-17.682c-0.388-2.609-3.936-36.606-20.306-24.629c-12.365,8.703,0.59,27.739,1.673,29.259
		c17.637,24.726,8.711,34.957,5.852,38.035c-7.018,8.396-22.232,12.982-31.499,5.639c-11.148-8.834-3.446-23.507-5.073-35.443
		c-0.557-4.083-2.741-10.89-7.524-11.992c-3.875-0.895-6.094,4.186-7.376,6.988c-2.131,4.658-3.326,11.516-3.41,16.588
		c-0.036,2.171-0.273,6.108,0.963,11.324c2.954,14.662,21.998,52.201-2.508,58.517c-10.687,2.754-20.529-3.677-22.173-14.616
		c-0.915-6.094-1.527-12.437-1.066-18.588c0.416-5.56,0.479-16.455-6.854-15.698c-9.234,0.953-7.709,36.822-28.324,28.473
		c-17.003-6.885,4.735-37.383-3.859-48.326c-0.671-0.854-0.838-0.835-1.463-1.045c-4.197,0.897-5.533,8.273-7.158,11.56
		c-2.131,4.313-4.655,8.849-7.938,12.41c-5.824,6.319-21.906,11.933-27.498,2.113c-3.18-5.585,1.59-11.553,5.185-15.634
		c4.24-5.143,6.356-9.345,9.353-14.104c2.117-3.36,8.115-17.197-0.784-20.172c-12.491-4.175-37.688,64.058-38.454,65.623
		c-7.345,14.994-13.92,21.183-26.75,26.541c-13.66,4.042-27.85-1.801-34.549-14.334c-6.689-12.518-1.195-27.67,6.754-38.33
		c4.239-5.687,10.188-11.531,15.971-15.681c3.445-2.472,43.953-27.565,28.653-40.148c-8.219-6.76-32.231,12.722-41.749,17.208
		c-10.433,4.918-26.055-0.846-22.535-14.348c0.712-2.732,4.178-10.945,1.896-13.281c-4.004-4.149-11.936,3.716-15.257,5.435
		c-10.244,5.298-22.871,8.726-31.727-0.723c-7.767-8.286-6.277-23.01,0.797-31.462c5.541-6.878,11.052-14.185,19.436-18.392
		c5.137-2.576,26.973-15.497,19.019-21.526c-7.197-5.455-16.832,4.521-25.058,4.111c-7.689-0.383-17.089-5.083-15.266-14.38
		c2.099-10.709,12.096-13.603,20.934-17.232c7.505-3.081,19.223-12.399,12.702-20.356c-9.762-11.912-27.579,9.899-34.762,16.529
		c-11.595,10.7-23.321,21.321-36.49,30.012c-10.524,6.944-27.407,13.889-37.564,2.439c-9.257-10.434-5.331-31.938,17.804-48.481
		c7.609-5.44,17.647-8.802,26.549-11.386c18.708-5.431,38.894-1.453,53.83-14.958c5.817-5.259-0.87-7.837-3.311-8.282
		c-3.469-0.635-20.31-2.275-20.331-13.313c-0.012-5.778-1.481-10.785,3.892-14.445c5.521-3.762,12.759-3.444,18.888-5.617
		c5.009-1.775,10.998-4.519,15.068-8.058c2.836-2.467,4.407-7.756-0.647-12.005c-7.463-5.874-8.921-7.36-15.729-10.348
		c-7.16-3.142-13.094-5.109-17.036-12.361c-7.254-13.343-1.836-30.161,11.03-37.271c13.635-7.537,24.195-1.43,33.287,9.583
		c2.597,3.146,5.041,6.427,8.511,10.062c0.699,0.732,9.374,10.406,21.317,5.434c3.078-1.559,16.248-4.933,4.389-17.555
		c-5.105-5.432-9.721-10.5-13.331-16.922c-5.896-10.485-1.448-24.472,12.128-24.421c16.257,0.061,20.192,42.155,31.715,26.296
		c7.035-12.115-23.557-28.471-28.809-46.51c-2.576-8.848-2.078-18.93,4.316-25.974c4.756-5.24,13.097-7.571,20.939-2.544
		c2.173,1.393,3.801,3.843,5.016,6.27c1.693,3.382,2.584,7.893,3.492,11.549c1.876,7.549,3.744,15.273,4.449,22.935
		c0.629,6.847,2.392,14.724,8.503,18.649c5.697,3.66,17.042,7.458,21.438-0.074c7.127-12.211-3.548-29.531,0.414-42.727
		c1.688-5.625,8.549-8.758,14.116-8.192c7.87,0.798,10.208,9.937,16.936,11.025c4.808,0.778,7.603-9.679,11.302-11.876
		c5.549-3.296,11.691-2.077,15.233,3.231c1.972,2.957,3.335,15.806,8.05,14.667c5.362-1.297,7.853-8.6,13.356-10.611
		c18.452-6.746,18.135,16.055,21.269,27.37c1.541,5.562,4.405,13.846,10.552,15.7c5.257,1.588,22.493-3.439,29.784-30.539
		c2.205-8.201,2.572-16.806,5.077-24.438c2.737-8.345,5.164-15.741,12.917-20.96c9.936-6.687,21.964-0.781,26.101,9.453
		c2.313,5.719,1.932,15.902,0.509,23.627c-1.589,8.619-9.723,15.078-15.719,20.868c-27.177,26.242-16.813,38.733-13.838,40.772
		C511.193,172.378,528.725,137.935,528.725,137.935z"/>
	<path fill-rule="evenodd" clip-rule="evenodd" fill="#88C540" d="M225.483,487.362c-4.487,3.059-10.453,7.524-17.764,4.388
		c-3.353-1.437-6.459-5.446-6.271-9.821c0.042-0.961,0.775-4.924,1.046-6.061c1.938-8.145,12.019-16.57,20.271-18.601
		c3.158-0.775,5.813,0.312,8.15,1.672c4.333,2.522,5.385,6.516,4.389,13.376C234.367,478.785,230.221,483.174,225.483,487.362z"/>
	<path fill-rule="evenodd" clip-rule="evenodd" fill="#88C540" d="M563.296,102.569c0,0-7.693-4.063-13.063,8.272
		c0,0-5.804,12.627,0.581,15.529c0,0,6.241,3.629,13.497-5.95C564.312,120.421,572.729,107.068,563.296,102.569z"/>
</g>
</svg>
